<?xml version="1.0" encoding="utf-8"?>
<!-- Generator: Adobe Illustrator 28.0.0, SVG Export Plug-In . SVG Version: 6.00 Build 0)  -->
<svg version="1.0" id="katman_1" xmlns="http://www.w3.org/2000/svg" xmlns:xlink="http://www.w3.org/1999/xlink" x="0px" y="0px"
	 viewBox="0 0 655.67 625.54" style="enable-background:new 0 0 655.67 625.54;" xml:space="preserve">
<style type="text/css">
	.st0{fill:#F9832C;}
	.st1{fill:#2C314A;}
	.st2{fill:#FDC855;}
	.st3{fill:#E24E38;}
	.st4{fill:#FCFEFD;}
	.st5{fill:#51E761;}
	.st6{fill:#D82247;}
	.st7{fill:#FA6C32;}
	.st8{fill:#2B9F55;}
	.st9{fill:#FF284D;}
	.st10{fill:#FA9A32;}
	.st11{fill:#216C4C;}
	.st12{fill:#94A4AD;}
	.st13{fill:#CDD9D7;}
</style>
<path class="st0" d="M540.24,5.1c3.9,5.54,2.43,13.29-3.28,17.32c-5.72,4.03-13.51,2.81-17.41-2.72c-3.9-5.54-2.43-13.29,3.28-17.32
	C528.54-1.65,536.33-0.43,540.24,5.1z"/>
<path class="st1" d="M477.61,26.71c-5.01-2.76-6.77-9.16-3.94-14.28c2.83-5.13,9.18-7.04,14.18-4.28c5.01,2.76,6.77,9.16,3.94,14.28
	C488.96,27.56,482.61,29.47,477.61,26.71z"/>
<path class="st0" d="M622.49,12.15c2.58,4.63,0.92,10.47-3.72,13.04l-43.16,24.03c-4.62,2.58-10.46,0.91-13.04-3.72l-0.24-0.44
	c-2.58-4.63-0.92-10.47,3.72-13.04L609.2,8c4.62-2.58,10.46-0.91,13.04,3.72L622.49,12.15z"/>
<path class="st1" d="M448.51,35.85c4.22,4.5,3.89,11.66-0.73,15.98c-4.62,4.32-11.78,4.17-15.99-0.33
	c-4.22-4.5-3.89-11.66,0.73-15.98C437.14,31.2,444.3,31.35,448.51,35.85z"/>
<path class="st1" d="M397.33,141.12c-9.94,3.23-23.66,8.04-31.62,5.19c-55.23-19.74-116.62-16.1-166.89,15.12
	c-2.02,1.25-5.96,3.88-11.82,7.88c-5.34,3.65-10.31,5.42-14.89-0.03c-2.04-3.61-1.94-7.19,0.31-10.75c3.64-3.31,6.9-5.97,9.77-7.99
	c45.97-32.33,106.12-41.6,160.41-29.88c11.76,2.55,19.38,4.53,22.87,5.94c2.19,0.89,4.39,1.59,6.58,2.08
	c0.61,0.14,1.24-0.15,1.56-0.7l11.8-20.88l9.94-18.68l6.39-11.72c0.18-0.32,0.01-0.72-0.34-0.82c-3.06-0.84-6.17-1.76-9.33-2.75
	c-12.85-4.03-25.94-6.99-39.27-8.87C246.66,49.31,138.03,90.77,76.98,180.83c-51.64,76.18-58.83,169.14-20.66,252.84l2.5,5.18
	c21.98,42.13,51.85,76.98,91.16,103.75c7.35,5,12.6,8.42,15.74,10.25c28.43,16.58,58.78,27.35,91,34.24
	c32.12,6.88,65.8,8.76,98.12,3.76c63.2-9.79,120.8-37.7,165.37-84.77c35.97-37.99,59.04-82.75,69.19-134.27
	c6.55-33.24,5.94-67.83,0.71-101.2c-0.4-2.56-0.54-5.15-0.41-7.78c0.39-8.23,12.37-11.71,16.42-4.36c0.59,1.07,1.13,3.03,1.62,5.86
	c4.98,28.99,6.15,58.16,3.5,87.5c-0.53,5.78-1.31,11.53-2.35,17.24c-6.94,37.99-20.41,74.53-41.25,106.74
	c-17.32,26.78-37.61,49.63-62.26,69.62c-24.65,20.13-52.13,35.82-82.46,47.07c-2,0.74-4.03,1.34-6.1,1.79
	c-0.15,0.03-0.22,0.13-0.2,0.28v0.01c0.02,0.13,0.13,0.22,0.27,0.22L530,594.48c11.52-0.03,23.05-0.06,34.58-0.09
	c10.17-0.02,13.52,11.85,4.91,17.13l-509.84,0.34c-5.79-2.15-7.59-6.16-5.39-12.05c1.7-4.56,6-5.25,10.8-5.26
	c16.56-0.05,33.13-0.06,49.71-0.04l93.66,0.17c3.35,0.01,3.4-0.41,0.15-1.24c-3.51-0.9-7.13-2.17-10.87-3.8
	c-23.68-10.37-44.29-21.16-66.87-37.59c-41.78-30.26-75.32-72.41-95.77-119.32c-5.84-13.38-10.67-27.87-14.48-43.48
	c-7.91-32.36-9.72-65.09-5.43-98.18c5.33-41.23,20.3-81.65,43.52-116.59c36.6-55.05,86.24-93.35,148.93-114.92
	c67.03-23.07,144.38-23.19,211.07,1.81c6.53,2.45,9.08,4.88,5.44,11.58c-7.46,13.75-15.05,27.42-22.78,41.03
	c-1.11,1.94-2.12,3.59-3.04,4.96c-0.68,1.01-0.45,1.29,0.68,0.84c29.56-11.78,52.07-36.02,63.86-65.14
	c2.79-6.89,5.38-15.64,14.12-12.75c6.04,1.99,7.08,7.96,5.12,13.4C466.87,97.37,438.83,125.49,397.33,141.12z"/>
<path class="st1" d="M544.81,53.86c2.46,4.52,0.8,10.18-3.72,12.64l-39.07,21.3c-4.52,2.46-10.18,0.79-12.64-3.72l-0.22-0.4
	c-2.46-4.52-0.8-10.18,3.72-12.64l39.07-21.3c4.52-2.46,10.18-0.79,12.64,3.72L544.81,53.86z"/>
<path class="st0" d="M566.34,104.1c-2.13-2.28-5.39-5.49-8.88-5.34c0-1.01-0.32-1.76-0.95-2.25c-0.97-0.75-1.48-1.14-1.51-1.18
	c-0.49-0.61-0.93-1.25-1.3-1.93c-0.15-0.27-0.34-0.5-0.57-0.7l-2.53-2.19c9.25-4.98,28.95-15.77,59.1-32.37
	c4.67-2.57,8.67-2.34,11.99,0.71c3.43,3.16,4.47,8.74,2,12.7c-1.38,2.22-4.42,3.89-7.06,5.36C599.99,86.2,583.23,95.27,566.34,104.1
	z"/>
<path class="st2" d="M550.6,90.51l2.53,2.19c0.23,0.2,0.42,0.43,0.57,0.7c0.37,0.68,0.81,1.32,1.3,1.93
	c0.03,0.04,0.54,0.43,1.51,1.18c0.63,0.49,0.95,1.24,0.95,2.25c-1.13,0.12-1.86,0.82-2.19,2.09c-3.5,13.51-7.99,23.71-20.66,30.43
	c-2.17,1.15-6.2,2.63-12.09,4.44c-8.06,2.47-17.97,5.22-24.57,9.05c-26.08,15.11-39.15,42.54-35.06,72.21
	c-3.23-0.61-6.46-0.99-9.68-1.15c-2.63-0.12-4.08-0.91-5.46-3.33c-2.92-5.07-7.48-8.16-13.69-9.25l-6.11-7.1
	c-0.28-0.33-0.17-0.83,0.22-1.01c5.73-2.61,11.66-3.65,17.78-3.14c1.42,0.12,2.69,0.15,3.82,0.1c0.67-0.03,0.86-0.36,0.59-0.97
	c-8.42-18.91-30.64-19.25-46.46-10.36c-0.41,0.23-0.56,0.11-0.47-0.34c0.63-3.01,1.37-6,2.21-8.96c1.81-6.41,2.6-12.83,2.35-19.25
	c-0.02-0.55-0.6-0.91-1.1-0.68c-13.88,6.3-24.1,15.15-28.65,30.11c-0.09,0.28-0.25,0.34-0.49,0.19
	c-14.84-9.25-39.21-10.63-47.52,8.16c-0.24,0.55,0.13,1.17,0.73,1.21c6.69,0.54,11.87,0.91,18.07,3.77c0.87,0.4,1.09,1.53,0.45,2.23
	c-3.25,3.54-6.77,7.33-9.25,11.22c-15.42,24.22-9.75,54.32,10.63,73.47l-0.77,2.14c-0.11,0.31-0.26,0.6-0.47,0.85
	c-3.31,4.12,3.67,9.16,6.89,11.14c14.91,9.11,27.54,10.98,44.7,8.05c9.14-1.57,17.54-6.5,25.5-11.57c14.15-9,28.21-18.13,42.2-27.39
	c0.05-0.03,1.96-1.17,5.73-3.41c2.13-1.27,4.03-2.72,5.68-4.34l6.5-2.34c1.13,0.39,2.2,0.76,3.21,1.09
	c1.01,0.34,1.99,0.88,2.92,1.63c4.89,3.89,10.6,6.43,17.12,7.63c-26.25,13.79-52.29,27.78-78.1,41.96c-2.13,1.17-3.89,1.7-3.25,4.74
	c1.47,7.01,3.31,14.56,5.52,22.66c2.29,8.4,4.62,14.62,6.98,18.65c6.03,10.29,14.5,15.82,23.73,22.97
	c12.32,9.55,16.51,20.73,19.06,35.75c-2.67,2.51-4.57,5.19-5.68,8.06c-1.96,5.03-4.04,9.37-6.23,13.04
	c-1.19-6.81-2.15-11.45-2.87-13.91c-11.16-38.23-52.14-56.22-88.13-38.85c-27.87,13.45-41.38,44.52-34.01,74.66l-0.01,0.7
	c0,0.33-0.12,0.61-0.35,0.84c-0.63,0.62-0.77,1.32-1.47,1.79c-0.71,0.48-1.7,0.9-2.99,1.25c-9.73-3.68-19.34-5.38-28.81-5.09
	c-18.08,0.55-34.14,11.43-40.44,28.91c-3.67,0.47-6.06,1.67-7.15,3.61c-2.77,4.91-4.56,10.12-5.37,15.63
	c-37.66-2.08-68.15-26.85-68.02-66.17c0.02-4.77,0.35-9.52,1-14.24c0.33-2.42-0.17-4.66-1.49-6.71c1.52-2.75,3.08-5.52,4.68-8.31
	c7.49-13.05,10.03-25.19,6.98-40.5c-0.1-0.5-0.12-1.57-0.07-3.2c0.05-1.79,0.99-3.07,2.89-2.44c8.23,2.7,13.62,4.23,23.73,3.27
	c4.71-0.45,8.84-1.6,12.4-3.47c0.3-0.15,0.53-0.45,0.69-0.89c0.1-0.28,0.29-0.48,0.57-0.61c0.82-0.36,0.91-1.28,0.26-2.75
	c27.67-9.09,33.15-44.63,10.19-62.13c-7.52-5.73-16.39-7.76-26.61-6.08c-10.41,1.71-18.55,7.3-24.43,16.76
	c-3.59-0.71-7.24,0.16-10.95,2.6c-3.06,2-5.95,2.79-9.12,1.66c-10.02-3.56-20.21-6.53-30.58-8.91c-15.75-4.12-30.95-2.7-45.6,4.27
	c-0.65,0.09-1.22,0.08-1.7-0.03c-0.15-0.03-0.23-0.13-0.23-0.29c0-0.09,0-0.19,0.01-0.29c0-0.17-0.05-0.33-0.14-0.48l-5.33-8.42
	l7.91-31.88l8.57,2.03c1.56,0.37,2.3,1.35,2.22,2.95c-0.19,3.95-1.24,19.66,5.63,19.3c9.01-0.47,17.51-1.55,25.5-3.22
	c6.77-1.42,17.51-4.72,20.49-9.26c0.79-1.2,0.93-2.9,0.43-5.11c31.61-16.41,29-54.92,11.69-80.76c-4.43-6.62-7.99-11.4-10.67-14.35
	l0.71-5.81c4.58,5.45,9.55,3.68,14.89,0.03c5.86-4,9.8-6.63,11.82-7.88c50.27-31.22,111.66-34.86,166.89-15.12
	c7.96,2.85,21.68-1.96,31.62-5.19c0.52,0.67,1.5,0.75,2.94,0.26c0.86-0.3,2.55-0.35,3.44-0.21c8.27,1.33,16.64,2.72,25.11,4.17
	c-2.42,2.43-5.2,4.2-5.71,7.82c-0.61,4.31,0.85,7.61,4.38,9.88c3.68,2.38,8.47,1.13,11.96-0.96c7.96-4.75,16.58-8.62,24.37-13.51
	c1.86-1.17,5.88-2.85,6.75-4.91c1.54-3.67,6.49-6.14,9.9-7.87c0.29-0.15,0.6-0.2,0.92-0.16c2.1,0.26,3.62,0.71,4.56,1.36
	c3.63,2.1,8.1,2.9,13.41,2.4c3.58-0.33,8.19-0.8,13.84-1.39c2.71-0.28,3.84-1.33,4.98-3.87c4.25-9.51,8.86-18.84,13.84-27.99
	C536.22,98.44,541.95,94.66,550.6,90.51z M309.31,175.11c2.54,0.93,4.76,1.51,6.66,1.73c8.22,0.93,13.4-7.93,8.58-14.61
	c-6.07-8.4-31.13-9.58-40.47-9.66c-4.45-0.03-8.2,0.78-10.04,4.85c-2.19,4.84,0.07,12.69,6.42,13.02
	C290.65,170.97,299.62,171.55,309.31,175.11z M206.32,182.18c3.79,2.95,9.33,2.18,12.38-1.72c3.05-3.91,2.45-9.48-1.33-12.43
	c-3.79-2.95-9.33-2.18-12.38,1.72C201.93,173.66,202.53,179.23,206.32,182.18z M303.16,226.56c0-25.8-20.91-46.71-46.71-46.71
	c-25.8,0-46.71,20.91-46.71,46.71c0,25.8,20.91,46.71,46.71,46.71C282.25,273.27,303.16,252.36,303.16,226.56z M207.5,276.66
	c0-4.63-3.76-8.39-8.39-8.39s-8.39,3.76-8.39,8.39c0,4.63,3.76,8.39,8.39,8.39S207.5,281.29,207.5,276.66z M343.82,305.96
	c0-18.23-14.78-33.01-33.01-33.01c-18.23,0-33.01,14.78-33.01,33.01c0,18.23,14.78,33.01,33.01,33.01
	C329.04,338.97,343.82,324.19,343.82,305.96z M408.34,331.93c-2.36-4.45-7.89-6.15-12.34-3.8l-39.35,20.83
	c-4.46,2.36-6.16,7.88-3.8,12.34l0.25,0.48c2.36,4.45,7.89,6.15,12.34,3.8l39.35-20.83c4.46-2.36,6.16-7.88,3.8-12.34L408.34,331.93
	z M282.87,366.08c3.44,3.01,8.78,2.52,11.94-1.08c3.16-3.61,2.93-8.97-0.51-11.98c-3.44-3.01-8.78-2.52-11.94,1.08
	C279.2,357.71,279.43,363.07,282.87,366.08z M334.6,391.65c4.87,0.37,9.12-3.43,9.5-8.49c0.38-5.05-3.26-9.45-8.13-9.82
	c-4.87-0.37-9.12,3.43-9.5,8.49C326.08,386.89,329.72,391.29,334.6,391.65z M287.51,450.95l3.62,0.51c0.32,0.05,0.62-0.02,0.9-0.19
	c10.27-6.36,20.36-12.99,30.28-19.88c1.63-1.13,2.68-2.4,3.16-3.81c0.35-1.03,0.05-1.62-0.9-1.79c-0.29-0.04-0.55-0.23-0.67-0.5
	c-0.27-0.56-0.18-1.03,0.25-1.42c14.68-5.22,6.22-25.67-7.71-18.36c-1.57,0.83-2.98,2.5-4.24,5.02c-4.25,0.07-7.79,1.84-10.62,5.32
	c-0.41,0.51-0.76,1.29-1.06,2.36c-0.42,1.53-1.13,2.16-2.12,1.9c-0.17-28.17-24.6-49.15-52.62-43.95
	c-28.31,5.25-46.12,36.66-33.21,63.62C226.97,469.87,264.88,476.23,287.51,450.95z"/>
<path class="st3" d="M385.41,107.1l-11.8,20.88c-0.32,0.55-0.95,0.84-1.56,0.7c-2.19-0.49-4.39-1.19-6.58-2.08
	c-3.49-1.41-11.11-3.39-22.87-5.94c-54.29-11.72-114.44-2.45-160.41,29.88c-2.87,2.02-6.13,4.68-9.77,7.99
	c-1.97,0.09-3.86,0.2-5.67,0.31c-3.53,0.22-7.24,1.63-11.1,1.84c-0.06-7.57-1.84-8.02-7.88-11.59c1.52-1.43,3.02-2.81,4.5-4.15
	c1.51-1.38,3.09-2.67,4.72-3.86c52.27-38.31,116.18-53.71,180.77-45.43c9.35,1.2,20.85,3.73,29.41,5.78
	C372.61,102.73,378.69,104.62,385.41,107.1z"/>
<path class="st0" d="M654.52,101.55c2.51,4.67,0.76,10.49-3.9,13l-42.63,22.96c-4.66,2.52-10.49,0.77-13-3.9l-0.22-0.4
	c-2.51-4.67-0.76-10.49,3.9-13l42.63-22.96c4.66-2.52,10.49-0.77,13,3.9L654.52,101.55z"/>
<path class="st1" d="M557.46,98.76c3.49-0.15,6.75,3.06,8.88,5.34c7.85,16.46,10.28,36.58,3.47,53.55
	c-4.88,12.17-13.67,21.71-26.36,28.64c-0.58,0.31-0.79,0.79-0.64,1.44c4.17,17.51-3.58,35.44-17.99,45.95
	c-11.84,8.64-25.04,14.22-38,21.35l-6.5,2.34c-1.49-1.15-2.8-2.73-3.93-4.74c-6.69-11.88-11.19-23.76-13.5-35.65
	c-4.09-29.67,8.98-57.1,35.06-72.21c6.6-3.83,16.51-6.58,24.57-9.05c5.89-1.81,9.92-3.29,12.09-4.44
	c12.67-6.72,17.16-16.92,20.66-30.43C555.6,99.58,556.33,98.88,557.46,98.76z M487.26,179.13c-0.38,0.29-0.78,0.87-1.21,1.72
	c-6.05,12.07-7.43,24.86-4.12,38.38c0.94,4.83,2.6,9.64,4.98,14.43c0.24,0.49,0.82,0.7,1.32,0.48c15.47-6.77,33.9-14.62,38.06-33.12
	c0.15-0.64-0.25-1.28-0.89-1.44c-12.73-3.05-11.17-17.59-1.43-23.2c16.02-7.67,30.84-15.92,32.17-35.93l0.87-4.81
	c0.04-0.21-0.23-0.33-0.37-0.17c-10.85,12.82-23.96,15.61-39.21,20.3C504.56,159.73,494.5,167.52,487.26,179.13z"/>
<path class="st0" d="M485.95,136.99c-0.94-0.65-2.46-1.1-4.56-1.36c-0.32-0.04-0.63,0.01-0.92,0.16c-3.41,1.73-8.36,4.2-9.9,7.87
	c-0.87,2.06-4.89,3.74-6.75,4.91c-7.79,4.89-16.41,8.76-24.37,13.51c-3.49,2.09-8.28,3.34-11.96,0.96
	c-3.53-2.27-4.99-5.57-4.38-9.88c0.51-3.62,3.29-5.39,5.71-7.82c14.96-7.97,26.94-14.63,35.93-19.98
	c12.48-7.42,22.92-13.42,31.33-18c5.57-3.03,11.01-4.83,15.34,0.52c4.82,5.94,1.69,12.7-4.23,16.25
	C500.48,128.16,493.4,132.44,485.95,136.99z"/>
<path class="st4" d="M556.14,140.45c-10.34,9.83-22.84,14.09-35.87,19.19c-8.6,3.37-17.52,9.38-23.12,17.62
	c-0.86,1.27-2.13,2.19-3.81,2.17c-2.01-0.01-4.03-0.11-6.08-0.3c7.24-11.61,17.3-19.4,30.17-23.36c15.25-4.69,28.36-7.48,39.21-20.3
	c0.14-0.16,0.41-0.04,0.37,0.17L556.14,140.45z"/>
<path class="st5" d="M556.14,140.45c-1.33,20.01-16.15,28.26-32.17,35.93c-2.03-0.33-3.87,0.26-5.54,1.77
	c-11.78,10.71-21.41,22.27-21.21,39.2c0.01,0.92-0.73,1.68-1.65,1.7l-13.64,0.18c-3.31-13.52-1.93-26.31,4.12-38.38
	c0.43-0.85,0.83-1.43,1.21-1.72c2.05,0.19,4.07,0.29,6.08,0.3c1.68,0.02,2.95-0.9,3.81-2.17c5.6-8.24,14.52-14.25,23.12-17.62
	C533.3,154.54,545.8,150.28,556.14,140.45z"/>
<path class="st6" d="M147.77,149.09c6.04,3.57,7.82,4.02,7.88,11.59c-2.86,7.36-14.04,16.3-20.4,7.38c-0.72-1.01-1.34-3.25-1.87-6.7
	C137.73,155.69,142.52,151.6,147.77,149.09z"/>
<path class="st1" d="M434.06,203.25c2.79,4.31,4.82,7.77,6.08,10.38c15.04,30.98-1.1,68.09-32.97,79.61
	c-19.4,7.01-41.16,2.38-56.31-11.34c-20.38-19.15-26.05-49.25-10.63-73.47c2.48-3.89,6-7.68,9.25-11.22
	c0.64-0.7,0.42-1.83-0.45-2.23c-6.2-2.86-11.38-3.23-18.07-3.77c-0.6-0.04-0.97-0.66-0.73-1.21c8.31-18.79,32.68-17.41,47.52-8.16
	c0.24,0.15,0.4,0.09,0.49-0.19c4.55-14.96,14.77-23.81,28.65-30.11c0.5-0.23,1.08,0.13,1.1,0.68c0.25,6.42-0.54,12.84-2.35,19.25
	c-0.84,2.96-1.58,5.95-2.21,8.96c-0.09,0.45,0.06,0.57,0.47,0.34c15.82-8.89,38.04-8.55,46.46,10.36c0.27,0.61,0.08,0.94-0.59,0.97
	c-1.13,0.05-2.4,0.02-3.82-0.1c-6.12-0.51-12.05,0.53-17.78,3.14c-0.39,0.18-0.5,0.68-0.22,1.01L434.06,203.25z M358.3,263.26
	l1.63,1.9c5.05,5.45,10.86,9.8,18.11,11.76c33.18,8.96,58.89-22.19,47.31-53.56c-3.49-8.55-9-15.23-16.51-20.04
	c-15.55-8.78-34.7-7.14-47.22,4.97C346.31,223.11,344.64,246.71,358.3,263.26z"/>
<path class="st1" d="M309.31,175.11c-9.69-3.56-18.66-4.14-28.85-4.67c-6.35-0.33-8.61-8.18-6.42-13.02
	c1.84-4.07,5.59-4.88,10.04-4.85c9.34,0.08,34.4,1.26,40.47,9.66c4.82,6.68-0.36,15.54-8.58,14.61
	C314.07,176.62,311.85,176.04,309.31,175.11z"/>
<path class="st3" d="M647.48,157.11c4.08,5.16,3.09,12.75-2.23,16.95c-5.31,4.2-12.92,3.41-17-1.76
	c-4.08-5.16-3.09-12.75,2.23-16.95C635.78,151.16,643.39,151.95,647.48,157.11z"/>
<path class="st7" d="M172.42,158.53c-2.25,3.56-2.35,7.14-0.31,10.75l-0.71,5.81c-6.71,5.59-12.34,13.08-17.75,19.9
	c-0.65,0.81-1.38,1.17-2.2,1.07c-10.15-1.23-19.99-0.67-29.5,1.67c-7.16,1.77-15.73,5.41-23.8,8.33
	c9.65-17.09,21.39-31.99,35.23-44.7c0.53,3.45,1.15,5.69,1.87,6.7c6.36,8.92,17.54-0.02,20.4-7.38c3.86-0.21,7.57-1.62,11.1-1.84
	C168.56,158.73,170.45,158.62,172.42,158.53z"/>
<path class="st1" d="M206.32,182.18c-3.78-2.96-4.38-8.53-1.33-12.43c3.06-3.9,8.6-4.67,12.38-1.72c3.78,2.96,4.38,8.53,1.33,12.43
	C215.64,184.37,210.1,185.14,206.32,182.18z"/>
<path class="st1" d="M171.4,175.09c2.68,2.95,6.24,7.73,10.67,14.35c17.31,25.84,19.92,64.35-11.69,80.76
	c-3.85,1.91-7.74,3.27-11.67,4.09c-8.23,1.73-16.97,3.12-26.24,4.18c-2.38,0.27-4.68,0.2-6.9-0.21c-0.51-0.1-0.92-0.49-1.03-1
	c-0.47-2.14-0.68-4.37-0.65-6.68c0.11-8.41,0.76-16.77,1.95-25.09c0.25-1.77-0.31-2.85-1.69-3.22
	c-9.82-7.39-18.91-15.34-27.28-23.85c-0.95-0.96-2.08-2.33-3.39-4.12c-0.94-1.91-0.68-3.65,0.77-5.2c1.07-1.15,2.37-2.16,3.9-3.04
	c8.07-2.92,16.64-6.56,23.8-8.33c9.51-2.34,19.35-2.9,29.5-1.67c0.82,0.1,1.55-0.26,2.2-1.07
	C159.06,188.17,164.69,180.68,171.4,175.09z M124.01,217.73c-0.01,0.74,0.11,1.22,0.36,1.43c7.35,6.18,14.34,12.05,24.27,14.32
	c1.57,0.36,2.09,1.31,1.58,2.85c-1.56,4.75-3.37,9.81-5.43,15.16c-1.04,1.54-1.66,3.56-1.85,6.05c-0.03,0.31,0.22,0.58,0.53,0.57
	c15.03-0.3,29.38-5.18,32.88-21.58c1.32-6.18,0.38-10.98-0.52-17.09c-0.74-4.11-1.98-7.97-3.71-11.6l-2.41-4.42
	c-0.26-0.48-0.93-0.52-1.25-0.07l-8.27,11.73c-0.67,0.95-1.88,1.36-2.99,1.01c-10.78-3.35-20.26-4.93-31.73-1.01
	c-1.13,0.39-2.03,0.77-2.69,1.14c-0.33,0.19-0.46,0.47-0.41,0.84C122.52,218.04,123.07,218.26,124.01,217.73z"/>
<path class="st0" d="M607.68,181.02c2.71,4.74,1.06,10.78-3.69,13.48l-26.53,15.13c-4.74,2.71-10.77,1.06-13.48-3.69l-0.34-0.59
	c-2.71-4.74-1.06-10.78,3.69-13.48l26.53-15.13c4.74-2.71,10.77-1.06,13.48,3.69L607.68,181.02z"/>
<path class="st8" d="M523.97,176.38c-9.74,5.61-11.3,20.15,1.43,23.2c0.64,0.16,1.04,0.8,0.89,1.44
	c-4.16,18.5-22.59,26.35-38.06,33.12c-0.5,0.22-1.08,0.01-1.32-0.48c-2.38-4.79-4.04-9.6-4.98-14.43l13.64-0.18
	c0.92-0.02,1.66-0.78,1.65-1.7c-0.2-16.93,9.43-28.49,21.21-39.2C520.1,176.64,521.94,176.05,523.97,176.38z"/>
<path class="st1" d="M303.16,226.56c0,25.8-20.91,46.71-46.71,46.71c-25.8,0-46.71-20.91-46.71-46.71
	c0-25.8,20.91-46.71,46.71-46.71C282.25,179.85,303.16,200.76,303.16,226.56z M227.62,229.16c-0.04,2.83,0.7,6.05,2.23,9.64
	c7.02,13.37,17.97,18.65,32.85,15.86c19.59-3.69,27.94-23.35,19.86-40.81c-2.76-5.92-7.21-10.51-13.35-13.78
	C246.76,190.03,227.12,205.76,227.62,229.16z"/>
<path class="st4" d="M269.21,200.07c-5.77,1.35-11.68,2.87-17.74,4.55c-5.58,1.55-10.44,4.35-14.59,8.38
	c-4.2,4.09-7.29,9.47-9.26,16.16C227.12,205.76,246.76,190.03,269.21,200.07z"/>
<path class="st4" d="M408.84,203.32c-0.9-0.01-1.84-0.16-2.81-0.45c-1.05-0.31-1.97-0.45-2.74-0.4
	c-27.01,1.73-48.76,19.76-47.06,48.6c0.11,1.81,0.8,5.88,2.07,12.19c-13.66-16.55-11.99-40.15,3.32-54.97
	C374.14,196.18,393.29,194.54,408.84,203.32z"/>
<path class="st9" d="M269.21,200.07c6.14,3.27,10.59,7.86,13.35,13.78c0.07,1.21-0.09,2.12-0.48,2.73
	c-0.16,0.26-0.28,0.54-0.37,0.83c-3.35,11.48-11.34,24.79-24.54,25.97c-4.41,0.4-8.84,0.71-13.28,0.93
	c-0.34,0.02-0.68-0.06-0.98-0.22c-4.09-2.18-8.44-3.94-13.06-5.29c-1.53-3.59-2.27-6.81-2.23-9.64c1.97-6.69,5.06-12.07,9.26-16.16
	c4.15-4.03,9.01-6.83,14.59-8.38C257.53,202.94,263.44,201.42,269.21,200.07z"/>
<path class="st9" d="M408.84,203.32c7.51,4.81,13.02,11.49,16.51,20.04l0.5,3.3c0.05,0.33-0.02,0.63-0.23,0.9
	c-1.38,1.75-2.36,3.59-2.95,5.51c-3.87,12.63-11.73,25.02-23.93,30.32c-11.74,5.09-23.96,5.56-36.65,1.4
	c-0.29-0.1-0.57-0.08-0.85,0.05c-0.36,0.18-0.8,0.29-1.31,0.32l-1.63-1.9c-1.27-6.31-1.96-10.38-2.07-12.19
	c-1.7-28.84,20.05-46.87,47.06-48.6c0.77-0.05,1.69,0.09,2.74,0.4C407,203.16,407.94,203.31,408.84,203.32z"/>
<path class="st4" d="M172.12,207.84l-0.04,0.4c-0.03,0.4-0.47,0.63-0.82,0.43l-0.51-0.28c-0.3-0.17-0.61-0.19-0.93-0.08
	c-1.84,0.63-3.48,1.56-4.91,2.81c-2,1.74-2.95,5.02-4.81,6.6c-2.76,2.36-6.24,1.05-9.4,0.67c-1.62-0.2-3.29-0.3-5.01-0.31
	c-7.28-0.01-14.51-0.12-21.68-0.35c-0.94,0.53-1.49,0.31-1.64-0.67c-0.05-0.37,0.08-0.65,0.41-0.84c0.66-0.37,1.56-0.75,2.69-1.14
	c11.47-3.92,20.95-2.34,31.73,1.01c1.11,0.35,2.32-0.06,2.99-1.01l8.27-11.73c0.32-0.45,0.99-0.41,1.25,0.07L172.12,207.84z"/>
<path class="st10" d="M434.06,203.25c6.21,1.09,10.77,4.18,13.69,9.25c1.38,2.42,2.83,3.21,5.46,3.33c3.22,0.16,6.45,0.54,9.68,1.15
	c2.31,11.89,6.81,23.77,13.5,35.65c1.13,2.01,2.44,3.59,3.93,4.74c-1.65,1.62-3.55,3.07-5.68,4.34c-3.77,2.24-5.68,3.38-5.73,3.41
	c-13.99,9.26-28.05,18.39-42.2,27.39c-7.96,5.07-16.36,10-25.5,11.57c-17.16,2.93-29.79,1.06-44.7-8.05
	c-3.22-1.98-10.2-7.02-6.89-11.14c0.21-0.25,0.36-0.54,0.47-0.85l0.77-2.14c15.15,13.72,36.91,18.35,56.31,11.34
	c31.87-11.52,48.01-48.63,32.97-79.61C438.88,211.02,436.85,207.56,434.06,203.25z"/>
<path class="st1" d="M523.37,279.08l-29.84,16.36c-0.21,0.11-0.2,0.42,0.02,0.52c20.19,8.83,33.8,23.89,40.83,45.18
	c10.05,33.34-3.15,71.62-31.81,90.79c-4.51,3.02-10.56,6.41-15.96,4.76c-0.3-0.09-0.55-0.3-0.68-0.59
	c-0.72-1.52-1.08-2.94-1.07-4.26c0.02-7.02-0.26-13.6-0.85-19.73c-2.55-15.02-6.74-26.2-19.06-35.75
	c-9.23-7.15-17.7-12.68-23.73-22.97c-2.36-4.03-4.69-10.25-6.98-18.65c-2.21-8.1-4.05-15.65-5.52-22.66
	c-0.64-3.04,1.12-3.57,3.25-4.74c25.81-14.18,51.85-28.17,78.1-41.96c28.73-15.55,57.49-31.2,86.27-46.93
	c6.59-3.61,13.11-7.35,19.55-11.23c2.94-1.78,6.45-2.92,9.84-1.93c6.38,1.86,8.4,10.2,4.32,14.87c-2.32,2.66-6.64,4.65-9.88,6.44
	C581.88,247.79,554.17,262.63,523.37,279.08z M449.92,320.17l1.25,7.56c2.05,11.65,6.76,21.83,16.86,28.54
	c19.54,12.98,31.19,29.22,33.34,53.02c0.04,0.44,0.24,0.53,0.61,0.28c4.16-2.87,8.46-10.52,11.06-14.9
	c2.45-4.13,4.07-8.83,4.87-14.09c3.46-15.03,2.81-29.12-4.33-42.7c-7.33-15.47-21.69-26.01-38.36-29.24
	c-5.18-1-8.91,0.58-13.88,3.05c-3.71,1.85-7.41,3.72-11.1,5.61c-0.31,0.15-0.49,0.4-0.53,0.75
	C449.63,318.7,449.7,319.4,449.92,320.17z"/>
<path class="st5" d="M172.12,207.84c1.73,3.63,2.97,7.49,3.71,11.6c-0.51,10.56-6.95,24.22-17.18,28.31
	c-3.41,1.36-8.03,2.61-13.86,3.74c2.06-5.35,3.87-10.41,5.43-15.16c0.51-1.54-0.01-2.49-1.58-2.85
	c-9.93-2.27-16.92-8.14-24.27-14.32c-0.25-0.21-0.37-0.69-0.36-1.43c7.17,0.23,14.4,0.34,21.68,0.35c1.72,0.01,3.39,0.11,5.01,0.31
	c3.16,0.38,6.64,1.69,9.4-0.67c1.86-1.58,2.81-4.86,4.81-6.6c1.43-1.25,3.07-2.18,4.91-2.81c0.32-0.11,0.63-0.09,0.93,0.08
	l0.51,0.28c0.35,0.2,0.79-0.03,0.82-0.43L172.12,207.84z"/>
<path class="st6" d="M282.56,213.85c8.08,17.46-0.27,37.12-19.86,40.81c-14.88,2.79-25.83-2.49-32.85-15.86
	c4.62,1.35,8.97,3.11,13.06,5.29c0.3,0.16,0.64,0.24,0.98,0.22c4.44-0.22,8.87-0.53,13.28-0.93c13.2-1.18,21.19-14.49,24.54-25.97
	c0.09-0.29,0.21-0.57,0.37-0.83C282.47,215.97,282.63,215.06,282.56,213.85z"/>
<path class="st3" d="M93.48,214.3c1.31,1.79,2.44,3.16,3.39,4.12c8.37,8.51,17.46,16.46,27.28,23.85c-3.33,2.69-6.18,5.66-8.56,8.93
	c-0.2,0.28-0.26,0.64-0.15,0.97c0.15,0.48,0.21,0.97,0.16,1.46c-0.02,0.29-0.12,0.54-0.31,0.76c-1.38,1.66-4.14,6.22-6.77,4.97
	c0.54-4.8-1.1-7.95-4.93-9.45c-9.62-3.76-12.75,6.75-14.66,13.4c-1.89,6.6-3.52,13.26-4.87,19.99c-1.1,5.43-1.28,9.58,1.91,14.09
	l-2.89,15.13c-0.19,1-1.02,1.74-2.03,1.81l-13.99,1.01L63,315.25c-0.82-0.02-1.45-0.71-1.4-1.52c1.82-28.08,9.71-56.01,21.35-81.9
	C85.86,225.35,89.37,219.51,93.48,214.3z"/>
<path class="st8" d="M175.83,219.44c0.9,6.11,1.84,10.91,0.52,17.09c-3.5,16.4-17.85,21.28-32.88,21.58
	c-0.31,0.01-0.56-0.26-0.53-0.57c0.19-2.49,0.81-4.51,1.85-6.05c5.83-1.13,10.45-2.38,13.86-3.74
	C168.88,243.66,175.32,230,175.83,219.44z"/>
<path class="st6" d="M425.35,223.36c11.58,31.37-14.13,62.52-47.31,53.56c-7.25-1.96-13.06-6.31-18.11-11.76
	c0.51-0.03,0.95-0.14,1.31-0.32c0.28-0.13,0.56-0.15,0.85-0.05c12.69,4.16,24.91,3.69,36.65-1.4c12.2-5.3,20.06-17.69,23.93-30.32
	c0.59-1.92,1.57-3.76,2.95-5.51c0.21-0.27,0.28-0.57,0.23-0.9L425.35,223.36z"/>
<path class="st10" d="M124.15,242.27c1.38,0.37,1.94,1.45,1.69,3.22c-1.19,8.32-1.84,16.68-1.95,25.09
	c-0.03,2.31,0.18,4.54,0.65,6.68c0.11,0.51,0.52,0.9,1.03,1c2.22,0.41,4.52,0.48,6.9,0.21c9.27-1.06,18.01-2.45,26.24-4.18
	c3.93-0.82,7.82-2.18,11.67-4.09c0.5,2.21,0.36,3.91-0.43,5.11c-2.98,4.54-13.72,7.84-20.49,9.26c-7.99,1.67-16.49,2.75-25.5,3.22
	c-6.87,0.36-5.82-15.35-5.63-19.3c0.08-1.6-0.66-2.58-2.22-2.95l-8.57-2.03l0.98-4.15c2.63,1.25,5.39-3.31,6.77-4.97
	c0.19-0.22,0.29-0.47,0.31-0.76c0.05-0.49-0.01-0.98-0.16-1.46c-0.11-0.33-0.05-0.69,0.15-0.97
	C117.97,247.93,120.82,244.96,124.15,242.27z"/>
<path class="st1" d="M108.52,259.36l-0.98,4.15l-7.91,31.88c-4.25,4.75-8.81,5.41-13.66,2c-3.19-4.51-3.01-8.66-1.91-14.09
	c1.35-6.73,2.98-13.39,4.87-19.99c1.91-6.65,5.04-17.16,14.66-13.4C107.42,251.41,109.06,254.56,108.52,259.36z"/>
<path class="st3" d="M576.94,265.41c2.2,1.86,3.7,4.52,6.5,5.15c2.06,0.45,4.28,0.47,6.67,0.05c5.23,33.37,5.84,67.96-0.71,101.2
	c-10.15,51.52-33.22,96.28-69.19,134.27c-44.57,47.07-102.17,74.98-165.37,84.77c-32.32,5-66,3.12-98.12-3.76
	c-32.22-6.89-62.57-17.66-91-34.24c-3.14-1.83-8.39-5.25-15.74-10.25c-39.31-26.77-69.18-61.62-91.16-103.75
	c0.31-0.23,0.78,0.19,1.41,1.24c0.06,0.1,0.19,0.1,0.26,0.01c0.47-0.69,1.14-1.01,1.99-0.94c3.17,0.25,6.34,0.4,9.49,0.46
	c1.86,3.55,3.91,7.19,6.14,10.91c10.77,17.96,23.39,34.53,38.25,49.29c10.74,10.67,22.08,20.78,34.03,30.35
	c0.33,0.26,0.81,0.16,1-0.21c0.5-0.94,1.26-1.57,2.28-1.9c2.55-0.81,4.83-1.92,7.23-3.1c1.62-0.81,3.23-2.28,5.29-2.97
	c0.15-0.05,0.24,0,0.29,0.14l0.12,0.32c0.09,0.25,0.33,0.19,0.73-0.19c0.24-0.23,0.61-0.4,1.12-0.53
	c55.63,35.3,123.52,50.77,188.51,39.48c7.23-1.26,15.57-3.07,25.02-5.44c48.85-12.27,92.09-39.7,125.15-77.49
	c13.58-15.52,23.85-31.05,34.51-49.6l5.61,2.82c1.52,0.76,3.36,0.14,4.09-1.39c2.03-4.25,4-8.47,5.91-12.68
	c3.75-8.27,6.8-17.24,10-25.98c1-2.39,1.99-5.34,2.97-8.87c7.53-27.1,10.13-54.9,9.18-81.25c-0.25-7.07-0.98-17.74-2.18-32.03
	c-0.04-0.51-0.21-1.12-0.51-1.83C576.27,266.42,576.35,265.74,576.94,265.41z"/>
<path class="st11" d="M207.5,276.66c0,4.63-3.76,8.39-8.39,8.39s-8.39-3.76-8.39-8.39c0-4.63,3.76-8.39,8.39-8.39
	S207.5,272.03,207.5,276.66z"/>
<path class="st1" d="M343.82,305.96c0,18.23-14.78,33.01-33.01,33.01c-18.23,0-33.01-14.78-33.01-33.01
	c0-18.23,14.78-33.01,33.01-33.01C329.04,272.95,343.82,287.73,343.82,305.96z M296.85,312.6l3.18,4.81
	c14.63,12.89,35.57-5.48,23.59-21c-5.19-6.27-11.23-8.28-18.12-6.03C295.93,293.52,292.12,303.81,296.85,312.6z"/>
<path class="st2" d="M523.37,279.08c0.35,0.47,1.1,0.66,2.23,0.58c0.85-0.05,1.59,0,2.2,0.16c7.37,1.94,14.94,2.19,22.69,0.74
	l-1,28.79c-3.33,1.56-6.97,2.68-10.92,3.36c-0.99,0.17-1.64,1.14-1.43,2.13c1.07,4.9,2.05,11.23,0.92,16.11
	c-0.06,0.28-0.28,0.5-0.57,0.56l-2.27,0.47c-0.72,0.15-1.16,0.89-0.94,1.59c0.78,2.46,0.81,4.98,0.1,7.57
	c-7.03-21.29-20.64-36.35-40.83-45.18c-0.22-0.1-0.23-0.41-0.02-0.52L523.37,279.08z"/>
<path class="st1" d="M244.12,356.73c-14.7,3.61-26.7,0.48-36-9.39c-11.14-11.82-12.28-27.88-4.85-42.06
	c5.88-9.46,14.02-15.05,24.43-16.76c10.22-1.68,19.09,0.35,26.61,6.08C277.27,312.1,271.79,347.64,244.12,356.73z M217.26,329.09
	c0.8,2.21,1.89,4.12,3.27,5.73c5.29,5.68,11.43,7.45,18.42,5.3c4.63-1.43,7.95-3.79,9.96-7.08c4.42-7.23,4.02-14.33-1.19-21.3
	C233.79,296.35,210.27,309.16,217.26,329.09z"/>
<path class="st4" d="M323.62,296.41c-2.75-1.33-5.66-1.62-8.73-0.85c-8.27,0.13-12.95,4.65-16.39,11.76
	c-0.32,0.67-0.53,1.55-0.64,2.64c-0.11,1.25-0.45,2.13-1.01,2.64c-4.73-8.79-0.92-19.08,8.65-22.22
	C312.39,288.13,318.43,290.14,323.62,296.41z"/>
<path class="st7" d="M393.34,88.41c-106.1-32.82-226.93-1.94-295.22,88.09c-30.18,39.78-48.44,86.08-52.92,136.1
	c-2.25,25.12-0.21,51.14,4.12,75.96c1.85,10.57,4.71,20.75,6.8,31.25l0.2,13.86l2.5,5.18c0.31-0.23,0.78,0.19,1.41,1.24
	c0.06,0.1,0.19,0.1,0.26,0.01c0.47-0.69,1.14-1.01,1.99-0.94c3.17,0.25,6.34,0.4,9.49,0.46c-2.1-8.95,1.19-12.71,9.87-11.27
	c0.34-0.59,0.52-1.4,0.54-2.41c0.02-0.98,0.55-1.88,1.4-2.38l16.14-9.51l-4.06-2.55c-0.49-0.31-0.56-1-0.13-1.39
	c4.35-4.03,8.31-9.15,12.26-12.73c0.75-0.69,1.67-0.96,2.75-0.81l2.04-0.15c0.33-0.03,0.61-0.16,0.84-0.4
	c0.92-1.01,0.81-2.09-0.34-3.24c-1.97-0.95-3.66-2.27-5.06-3.96c-0.41-0.16-0.77-0.51-1.08-1.06c-0.17-0.3-0.43-0.48-0.78-0.53
	c-0.91-0.13-1.68-0.52-2.3-1.17c-0.8-0.83-0.72-1.95-1.58-2.95c-0.21-0.24-0.38-0.51-0.49-0.8l-0.97-2.4
	c-0.15-0.36-0.68-0.26-0.68,0.13v0.67c0,0,0,0-0.01,0c-0.03-0.01-0.03-0.01-0.02,0c-0.34-1.52-0.96-2.92-1.85-4.19
	c-0.17-0.25-0.11-0.37,0.2-0.34c0.11,0.01,0.21,0.02,0.32,0.02c0.17-0.01,0.23-0.09,0.19-0.25c-0.53-2.2-1.32-4.02-1.67-6.4
	c-0.19-1.34-0.9-2.03-0.93-3.34c-0.11-4.54,0.18-9.06,0.89-13.55c0.03-0.19-0.05-0.33-0.23-0.4c-0.16-0.07-0.2-0.21-0.11-0.43
	c0.35-0.89,0.91-1.68,1.7-2.38c-6.1-8.77,0.79-19.27,11.54-16.47c1.03-1.65,1.71-3.63,2.04-5.94c0.03-0.2-0.06-0.31-0.26-0.32
	c-0.09,0-0.11-0.08-0.06-0.24c0.04-0.12,0.14-0.22,0.27-0.26l2.18-0.59l-7.61,0.26c-5.06-1.75-10.24-4.55-15.55-8.42
	c-0.51-0.37-0.6-1.1-0.2-1.59c3.82-4.63,10.48-8.28,15.85-10.98c-0.65,0.09-1.22,0.08-1.7-0.03c-0.15-0.03-0.23-0.13-0.23-0.29
	c0-0.09,0-0.19,0.01-0.29c0-0.17-0.05-0.33-0.14-0.48l-5.33-8.42c-4.25,4.75-8.81,5.41-13.66,2l-2.89,15.13
	c-0.19,1-1.02,1.74-2.03,1.81l-13.99,1.01L63,315.25c-0.82-0.02-1.45-0.71-1.4-1.52c1.82-28.08,9.71-56.01,21.35-81.9
	c2.91-6.48,6.42-12.32,10.53-17.53c-0.94-1.91-0.68-3.65,0.77-5.2c1.07-1.15,2.37-2.16,3.9-3.04c9.65-17.09,21.39-31.99,35.23-44.7
	c4.35-5.67,9.14-9.76,14.39-12.27c1.52-1.43,3.02-2.81,4.5-4.15c1.51-1.38,3.09-2.67,4.72-3.86
	c52.27-38.31,116.18-53.71,180.77-45.43c9.35,1.2,20.85,3.73,29.41,5.78c5.44,1.3,11.52,3.19,18.24,5.67l9.94-18.68
	C394.78,88.65,394.11,88.64,393.34,88.41z"/>
<path class="st12" d="M323.62,296.41c11.98,15.52-8.96,33.89-23.59,21c5.39-2.17,9.84-5.06,13.33-8.65c2.81-2.9,1.6-9.41,1.53-13.2
	C317.96,294.79,320.87,295.08,323.62,296.41z"/>
<path class="st13" d="M314.89,295.56c0.07,3.79,1.28,10.3-1.53,13.2c-3.49,3.59-7.94,6.48-13.33,8.65l-3.18-4.81
	c0.56-0.51,0.9-1.39,1.01-2.64c0.11-1.09,0.32-1.97,0.64-2.64C301.94,300.21,306.62,295.69,314.89,295.56z"/>
<path class="st1" d="M152.62,300.63l-8.22,16.57c-0.8,0.12-1.43,0.13-1.9,0.02c-9.11-1.98-17.86-1.01-26.25,2.9
	c-1.47,0.68-4.58,2.6-9.33,5.77c-5.06-1.75-10.24-4.55-15.55-8.42c-0.51-0.37-0.6-1.1-0.2-1.59c3.82-4.63,10.48-8.28,15.85-10.98
	C121.67,297.93,136.87,296.51,152.62,300.63z"/>
<path class="st10" d="M152.62,300.63c10.37,2.38,20.56,5.35,30.58,8.91c3.17,1.13,6.06,0.34,9.12-1.66
	c3.71-2.44,7.36-3.31,10.95-2.6c-7.43,14.18-6.29,30.24,4.85,42.06c9.3,9.87,21.3,13,36,9.39c0.65,1.47,0.56,2.39-0.26,2.75
	c-0.28,0.13-0.47,0.33-0.57,0.61c-0.16,0.44-0.39,0.74-0.69,0.89c-3.56,1.87-7.69,3.02-12.4,3.47c-10.11,0.96-15.5-0.57-23.73-3.27
	c-1.9-0.63-2.84,0.65-2.89,2.44c-0.05,1.63-0.03,2.7,0.07,3.2c3.05,15.31,0.51,27.45-6.98,40.5c-1.6,2.79-3.16,5.56-4.68,8.31
	c-1.25-1.66-2.93-2.75-5.04-3.26c-10.08-2.44-12.28,10.9-12.89,17.7c-1.82,20.41,3.75,40.08,16.17,56.17
	c16.21,21,38.98,32.33,65.92,35c-1.48,1.27-2.88,1.83-4.19,1.67c-4.15-0.52-9.58-1.73-16.31-3.63c-1.82-0.52-3.42-1.67-5.43-2.15
	c-0.17-0.04-0.25-0.22-0.17-0.37c0.12-0.21,0.01-0.36-0.32-0.43c-0.27-0.07-0.46,0.02-0.57,0.27c-0.13,0.27-0.32,0.49-0.58,0.65
	c-0.2,0.13-0.47,0.18-0.8,0.15c-2.86-0.19-5.71-0.5-8.56-0.93c-0.33-0.05-0.63,0.01-0.91,0.19c-0.25,0.15-0.47,0.12-0.67-0.09
	c-0.49-0.53-1.05-0.73-1.68-0.62c-1.99,0.37-3.69,0.55-5.1,0.54c-0.54,0-1.31,0.07-2.3,0.22c-1.04,0.16-1.99-0.14-3.1,0.15
	c-2.97,0.79-5.52,0.89-7.78-1.28c0.54,0.19,0.94,0.02,1.2-0.51c0.12-0.24,0.07-0.53-0.12-0.71c-11.29-10.88-21.58-24.77-25.19-40.3
	c-0.9-3.89-1.68-7.67-2.35-11.34c-0.09-0.52-0.37-0.91-0.82-1.18l-12.47-7.37c-0.43-0.72-0.93-1.57-1.5-2.55
	c-0.49-0.85-1.07-1.63-1.74-2.35c-3.39-3.65-6.68-7.39-9.87-11.23c-4.86-5.86-9.52-10.57-16.38-4.2c-1.88,1.75-2.5,4.5-1.85,8.26
	l-17.4-1.73c4.94-0.22,5.8-1.31,8.86-4.85c0.21-0.24,0.31-0.52,0.3-0.83c-0.01-0.72-0.01-1.14,0.34-1.81
	c1.43-2.71,2.22-5.62,2.38-8.75c0.02-0.33-0.08-0.61-0.31-0.84c-0.2-0.21-0.34-0.44-0.42-0.7c-0.07-0.25,0.01-0.43,0.24-0.54
	l2.34-1.11c20.51,2.06,39.67-4.71,53.19-20.06c13.83-15.69,18.78-34.71,14.85-57.05c-0.68-3.85-1.91-7.44-3.7-10.77
	c-0.28-0.53-0.98-0.68-1.46-0.32c-3.75,2.79-7.44,5.59-11.09,8.38c-0.72,0.55-1.65,0.9-2.8,1.03c-1.94-0.95-4.48-1.54-7.61-1.79
	c-5.64-6.76-10.6-11.93-14.87-15.5c-1.89-1.57-3.33-2.86-4.33-3.85c-0.23-0.23-0.32-0.51-0.27-0.83c0.09-0.62-0.12-1.17-0.64-1.65
	l0.21-1.33L152.62,300.63z"/>
<path class="st4" d="M247.72,311.74l-7.6-0.4c-4.19-0.79-8.03-0.16-11.51,1.87c-5.31,3.1-9.09,8.39-11.35,15.88
	C210.27,309.16,233.79,296.35,247.72,311.74z"/>
<path class="st4" d="M513.58,337.88c0.05,0.27,0.05,0.43,0.02,0.47c-0.3,0.48-0.96,0.54-1.34,0.13c-3.43-3.76-8.29-6.57-12.14-10.07
	c-1.73-1.57-5.89-4.08-12.48-7.52c-10.94-5.72-25.7-3.68-37.72-0.72c-0.22-0.77-0.29-1.47-0.21-2.12c0.04-0.35,0.22-0.6,0.53-0.75
	c3.69-1.89,7.39-3.76,11.1-5.61c4.97-2.47,8.7-4.05,13.88-3.05C491.89,311.87,506.25,322.41,513.58,337.88z"/>
<path class="st13" d="M240.12,311.34c-0.01,2.86-0.17,5.67-0.48,8.42c-0.39,3.48-1.66,5.37-4.07,7.66
	c-3.95,3.75-8.96,6.22-15.04,7.4c-1.38-1.61-2.47-3.52-3.27-5.73c2.26-7.49,6.04-12.78,11.35-15.88
	C232.09,311.18,235.93,310.55,240.12,311.34z"/>
<path class="st12" d="M240.12,311.34l7.6,0.4c5.21,6.97,5.61,14.07,1.19,21.3c-2.01,3.29-5.33,5.65-9.96,7.08
	c-6.99,2.15-13.13,0.38-18.42-5.3c6.08-1.18,11.09-3.65,15.04-7.4c2.41-2.29,3.68-4.18,4.07-7.66
	C239.95,317.01,240.11,314.2,240.12,311.34z"/>
<path class="st4" d="M144.4,317.2l-0.21,1.33c-0.75,0.33-1.32,0.53-1.73,0.59c-9.51,1.39-18.82,3.56-27.93,6.51l-7.61,0.26
	c4.75-3.17,7.86-5.09,9.33-5.77c8.39-3.91,17.14-4.88,26.25-2.9C142.97,317.33,143.6,317.32,144.4,317.2z"/>
<path class="st5" d="M513.58,337.88c7.14,13.58,7.79,27.67,4.33,42.7l-16.44-0.12c-0.61-0.01-0.91-0.31-0.92-0.92
	c-0.21-11.03-2.35-21.01-9.19-29.9c-5.22-6.79-11.68-12.06-19.37-15.8c-6.54-3.19-13.48-5.22-20.82-6.11l-1.25-7.56
	c12.02-2.96,26.78-5,37.72,0.72c6.59,3.44,10.75,5.95,12.48,7.52c3.85,3.5,8.71,6.31,12.14,10.07c0.38,0.41,1.04,0.35,1.34-0.13
	C513.63,338.31,513.63,338.15,513.58,337.88z"/>
<path class="st9" d="M144.19,318.53c0.52,0.48,0.73,1.03,0.64,1.65c-0.05,0.32,0.04,0.6,0.27,0.83c1,0.99,2.44,2.28,4.33,3.85
	c4.27,3.57,9.23,8.74,14.87,15.5c-1.29-0.61-2.05-0.04-2.3,1.71c-0.73,5.09,0.23,10.35-1,16.18c-0.44,2.11-0.41,4.94-1.36,7.33
	c-4.55,11.41-12.05,20.32-22.5,26.73c-6.25,3.84-10.85,6.31-13.79,7.42c-0.91,0.35-2.86,0.8-5.85,1.35
	c-0.07-0.25-0.14-0.51-0.21-0.76c-1.51-1.85-3.69-3.1-6.55-3.75l2.04-0.15c0.33-0.03,0.61-0.16,0.84-0.4
	c0.92-1.01,0.81-2.09-0.34-3.24c8.31,2.72,14.92-4.54,12.96-12.59c-3.43-14.12-26.6-6.18-18.02,8.63c-0.41-0.16-0.77-0.51-1.08-1.06
	c-0.17-0.3-0.43-0.48-0.78-0.53c-0.91-0.13-1.68-0.52-2.3-1.17c-0.8-0.83-0.72-1.95-1.58-2.95c-0.21-0.24-0.38-0.51-0.49-0.8
	l-0.97-2.4c-0.15-0.36-0.68-0.26-0.68,0.13v0.67c0,0,0,0-0.01,0c-0.03-0.01-0.03-0.01-0.02,0c-0.34-1.52-0.96-2.92-1.85-4.19
	c-0.17-0.25-0.11-0.37,0.2-0.34c0.11,0.01,0.21,0.02,0.32,0.02c0.17-0.01,0.23-0.09,0.19-0.25c-0.53-2.2-1.32-4.02-1.67-6.4
	c-0.19-1.34-0.9-2.03-0.93-3.34c-0.11-4.54,0.18-9.06,0.89-13.55c0.03-0.19-0.05-0.33-0.23-0.4c-0.16-0.07-0.2-0.21-0.11-0.43
	c0.35-0.89,0.91-1.68,1.7-2.38c2.21,3.03,5.25,4.23,9.12,3.58c10.65-1.76,13.18-16.59,2.42-20.05c1.03-1.65,1.71-3.63,2.04-5.94
	c0.03-0.2-0.06-0.31-0.26-0.32c-0.09,0-0.11-0.08-0.06-0.24c0.04-0.12,0.14-0.22,0.27-0.26l2.18-0.59
	c9.11-2.95,18.42-5.12,27.93-6.51C142.87,319.06,143.44,318.86,144.19,318.53z M143.03,362.19c5.11,2.66,11.46,0.58,14.18-4.66
	c2.73-5.24,0.79-11.63-4.32-14.29c-5.11-2.66-11.46-0.58-14.18,4.66C135.98,353.14,137.92,359.53,143.03,362.19z"/>
<path class="st1" d="M408.59,332.41c2.36,4.46,0.66,9.98-3.8,12.34l-39.35,20.83c-4.46,2.36-9.99,0.66-12.34-3.8l-0.25-0.48
	c-2.36-4.46-0.66-9.98,3.8-12.34L396,328.13c4.46-2.36,9.99-0.66,12.34,3.8L408.59,332.41z"/>
<path class="st8" d="M517.91,380.58c-0.8,5.26-2.42,9.96-4.87,14.09c-2.6,4.38-6.9,12.03-11.06,14.9c-0.37,0.25-0.57,0.16-0.61-0.28
	c-2.15-23.8-13.8-40.04-33.34-53.02c-10.1-6.71-14.81-16.89-16.86-28.54c7.34,0.89,14.28,2.92,20.82,6.11
	c7.69,3.74,14.15,9.01,19.37,15.8c6.84,8.89,8.98,18.87,9.19,29.9c0.01,0.61,0.31,0.91,0.92,0.92L517.91,380.58z"/>
<path class="st1" d="M110.36,332.98c10.76,3.46,8.23,18.29-2.42,20.05c-3.87,0.65-6.91-0.55-9.12-3.58
	C92.72,340.68,99.61,330.18,110.36,332.98z"/>
<path class="st1" d="M122.92,420.94c-6.77-0.66-13.06-2.33-18.87-5.02c2.61-3.63,5.18-7.23,7.71-10.79
	c1.33-1.86,3.17-3.46,5.53-4.81c0.07,0.25,0.14,0.51,0.21,0.76c15.27,5.03,29.04,2.47,41.29-7.68c8.47-7.01,13.49-15.53,15.08-25.56
	c1.26-7.91,0.61-16.48-1.96-25.69c1.15-0.13,2.08-0.48,2.8-1.03c3.65-2.79,7.34-5.59,11.09-8.38c0.48-0.36,1.18-0.21,1.46,0.32
	c1.79,3.33,3.02,6.92,3.7,10.77c3.93,22.34-1.02,41.36-14.85,57.05C162.59,416.23,143.43,423,122.92,420.94z"/>
<path class="st6" d="M164.3,340.36c3.13,0.25,5.67,0.84,7.61,1.79c2.57,9.21,3.22,17.78,1.96,25.69
	c-1.59,10.03-6.61,18.55-15.08,25.56c-12.25,10.15-26.02,12.71-41.29,7.68c2.99-0.55,4.94-1,5.85-1.35
	c2.94-1.11,7.54-3.58,13.79-7.42c10.45-6.41,17.95-15.32,22.5-26.73c0.95-2.39,0.92-5.22,1.36-7.33c1.23-5.83,0.27-11.09,1-16.18
	C162.25,340.32,163.01,339.75,164.3,340.36z"/>
<path class="st1" d="M143.03,362.19c-5.11-2.66-7.05-9.05-4.32-14.29c2.72-5.23,9.07-7.31,14.18-4.66
	c5.11,2.66,7.05,9.05,4.32,14.29C154.49,362.77,148.14,364.85,143.03,362.19z"/>
<path class="st11" d="M282.87,366.08c-3.43-3.01-3.66-8.37-0.51-11.98c3.16-3.6,8.5-4.09,11.94-1.08c3.43,3.01,3.66,8.37,0.51,11.98
	C291.64,368.6,286.3,369.09,282.87,366.08z"/>
<path class="st1" d="M113.28,392.78c-1.97-0.95-3.66-2.27-5.06-3.96c-8.58-14.81,14.59-22.75,18.02-8.63
	C128.2,388.24,121.59,395.5,113.28,392.78z"/>
<path class="st1" d="M334.6,391.65c-4.87-0.36-8.51-4.76-8.13-9.82c0.39-5.06,4.64-8.86,9.5-8.49c4.87,0.36,8.51,4.76,8.13,9.82
	C343.71,388.22,339.46,392.02,334.6,391.65z"/>
<path class="st1" d="M472.1,433.21c0.79,20.41-6.21,37.83-20.99,52.27c-5.91,5.76-12.7,10.1-20.37,13.02
	c-37.1,14.37-72.13-7.68-83.65-43.39c-7.37-30.14,6.14-61.21,34.01-74.66c35.99-17.37,76.97,0.62,88.13,38.85
	C469.95,421.76,470.91,426.4,472.1,433.21z M398.72,401.67c1.77,5.71,0.92,10.14-2.57,13.31c-2.69,2.45-5.66,3.28-8.89,2.47
	c-5.75-1.42-9.01-7.23-8.25-12.99c0.15-1.15-0.21-1.35-1.1-0.6c-13.1,11.07-17.37,30.17-13.47,46.22
	c2.24,9.23,7.22,17.14,14.93,23.73c11.23,10.75,27.57,13.41,42.08,9.24c22.05-6.34,36.04-29.45,32.36-51.86
	c-1.84-12.16-7.35-22.01-16.52-29.54c-14.57-11.08-30.29-13.35-47.14-6.81c-0.57,0.22-0.56,0.41,0.03,0.56
	C393.76,396.31,396.61,398.4,398.72,401.67z"/>
<path class="st1" d="M298.4,420.11c0.33,11.89-3.3,22.17-10.89,30.84c-22.63,25.28-60.54,18.92-74.94-11.17
	c-12.91-26.96,4.9-58.37,33.21-63.62C273.8,370.96,298.23,391.94,298.4,420.11z M227.94,429.73l0.76,1.65
	c1.39,5.89,6.54,11.17,11.45,14.29c10.98,6.99,26.21,3.54,34.25-6.01c6.47-7.68,8.84-20.68,4.43-29.93
	c-2.5-5.99-6.17-10.44-11.02-13.34c-12.89-7.12-29.21-3.73-37.13,8.9C225.68,413.26,224.77,421.4,227.94,429.73z"/>
<path class="st4" d="M437.29,401.65c-0.33,0.05-0.6,0.04-0.81-0.02c-10.03-3.08-21.99-2.82-32.26-1.22
	c-2.33,0.37-4.17,0.79-5.5,1.26c-2.11-3.27-4.96-5.36-8.54-6.27c-0.59-0.15-0.6-0.34-0.03-0.56
	C407,388.3,422.72,390.57,437.29,401.65z"/>
<path class="st7" d="M579.4,301.33c-0.25-7.07-0.98-17.74-2.18-32.03c-0.04-0.51-0.21-1.12-0.51-1.83
	c-0.44-1.05-0.36-1.73,0.23-2.06c-6.33-3.5-15.23,0-19.5,4.8c-2.44,2.73-3.78,7.24-6.95,10.35l-1,28.79
	c-3.33,1.56-6.97,2.68-10.92,3.36c-0.99,0.17-1.64,1.14-1.43,2.13c1.07,4.9,2.05,11.23,0.92,16.11c-0.06,0.28-0.28,0.5-0.57,0.56
	l-2.27,0.47c-0.72,0.15-1.16,0.89-0.94,1.59c0.78,2.46,0.81,4.98,0.1,7.57c10.05,33.34-3.15,71.62-31.81,90.79
	c-4.51,3.02-10.56,6.41-15.96,4.76c-0.3-0.09-0.55-0.3-0.68-0.59c-0.72-1.52-1.08-2.94-1.07-4.26c0.02-7.02-0.26-13.6-0.85-19.73
	c-2.67,2.51-4.57,5.19-5.68,8.06c-1.96,5.03-4.04,9.37-6.23,13.04c0.79,20.41-6.21,37.83-20.99,52.27
	c-5.91,5.76-12.7,10.1-20.37,13.02c-37.1,14.37-72.13-7.68-83.65-43.39l-0.01,0.7c0,0.33-0.12,0.61-0.35,0.84
	c-0.63,0.62-0.77,1.32-1.47,1.79c-0.71,0.48-1.7,0.9-2.99,1.25c1.07,0.52,1.59,1.19,1.58,2.01c-0.06,3.39-0.07,6.19-0.03,8.39
	c2.16,5.42,4.96,10.58,8.39,15.49c8.43,12.04,19.65,20.12,33.66,24.25c1.69,0.5,1.79,1.21,0.28,2.13l-16.13,9.87
	c-2.06,1.06-3.58,1.8-4.56,2.23c-26.34,11.39-62.2,18.6-85.6-3.65c-0.19-0.18-0.47-0.26-0.74-0.21c-7.57,1.41-15.23,1.76-22.97,1.04
	c-1.48,1.27-2.88,1.83-4.19,1.67c-4.15-0.52-9.58-1.73-16.31-3.63c-1.82-0.52-3.42-1.67-5.43-2.15c-0.17-0.04-0.25-0.22-0.17-0.37
	c0.12-0.21,0.01-0.36-0.32-0.43c-0.27-0.07-0.46,0.02-0.57,0.27c-0.13,0.27-0.32,0.49-0.58,0.65c-0.2,0.13-0.47,0.18-0.8,0.15
	c-2.86-0.19-5.71-0.5-8.56-0.93c-0.33-0.05-0.63,0.01-0.91,0.19c-0.25,0.15-0.47,0.12-0.67-0.09c-0.49-0.53-1.05-0.73-1.68-0.62
	c-1.99,0.37-3.69,0.55-5.1,0.54c-0.54,0-1.31,0.07-2.3,0.22c-1.04,0.16-1.99-0.14-3.1,0.15c-2.97,0.79-5.52,0.89-7.78-1.28
	c-17.25-9.96-33.89-19.9-49.01-32.99c-8.88-7.7-18.64-16.64-26.44-25.52c-3.44-3.91-7.79-9.48-13.04-16.7
	c4.94-0.22,5.8-1.31,8.86-4.85c0.21-0.24,0.31-0.52,0.3-0.83c-0.01-0.72-0.01-1.14,0.34-1.81c1.43-2.71,2.22-5.62,2.38-8.75
	c0.02-0.33-0.08-0.61-0.31-0.84c-0.2-0.21-0.34-0.44-0.42-0.7c-0.07-0.25,0.01-0.43,0.24-0.54l2.34-1.11
	c-6.77-0.66-13.06-2.33-18.87-5.02l-4.13-1.87l-16.14,9.51c-0.85,0.5-1.38,1.4-1.4,2.38c-0.02,1.01-0.2,1.82-0.54,2.41
	c0.82,1.44,1.88,2.58,2.58,3.83c20.61,36.82,48.62,66.67,84.03,89.55c55.63,35.3,123.52,50.77,188.51,39.48
	c7.23-1.26,15.57-3.07,25.02-5.44c48.85-12.27,92.09-39.7,125.15-77.49c13.58-15.52,23.85-31.05,34.51-49.6l5.61,2.82
	c1.52,0.76,3.36,0.14,4.09-1.39c2.03-4.25,4-8.47,5.91-12.68c3.75-8.27,6.8-17.24,10-25.98c1-2.39,1.99-5.34,2.97-8.87
	C577.75,355.48,580.35,327.68,579.4,301.33z M490.48,468.12c-12.46,1.41-15.33-19.85-1.81-20.29c7.65-0.25,11.36,3.51,11.14,11.26
	C498.8,464.12,495.69,467.13,490.48,468.12z"/>
<path class="st4" d="M267.81,396.39c-1.44,1.25-3.06,1.86-4.85,1.83c-4.71-0.09-7.71-0.06-9,0.07c-13.65,1.48-22.4,8.94-26.24,22.39
	c-0.66,2.33-0.48,4.56,0.55,6.68c0.23,0.47,0.36,0.87,0.37,1.2c0.05,0.85-0.19,1.24-0.7,1.17c-3.17-8.33-2.26-16.47,2.74-24.44
	C238.6,392.66,254.92,389.27,267.81,396.39z"/>
<path class="st5" d="M267.81,396.39c4.85,2.9,8.52,7.35,11.02,13.34c-0.59,5.71-2.62,11.16-6.11,16.35
	c-10.38,15.48-29.13,13.89-43.33,5.31c-0.13-0.08-0.28-0.1-0.42-0.06c-0.08,0.02-0.17,0.04-0.27,0.05l-0.76-1.65
	c0.51,0.07,0.75-0.32,0.7-1.17c-0.01-0.33-0.14-0.73-0.37-1.2c-1.03-2.12-1.21-4.35-0.55-6.68c3.84-13.45,12.59-20.91,26.24-22.39
	c1.29-0.13,4.29-0.16,9-0.07C264.75,398.25,266.37,397.64,267.81,396.39z"/>
<path class="st6" d="M110.74,396.57c2.86,0.65,5.04,1.9,6.55,3.75c-2.36,1.35-4.2,2.95-5.53,4.81c-2.53,3.56-5.1,7.16-7.71,10.79
	l-4.13-1.87l-4.06-2.55c-0.49-0.31-0.56-1-0.13-1.39c4.35-4.03,8.31-9.15,12.26-12.73C108.74,396.69,109.66,396.42,110.74,396.57z"
	/>
<path class="st9" d="M437.29,401.65c9.17,7.53,14.68,17.38,16.52,29.54l-1.05-0.86c-0.2-0.17-0.43-0.21-0.68-0.14
	c-0.29,0.08-0.54,0.01-0.75-0.22c-0.23-0.25-0.51-0.31-0.83-0.19c-0.52,0.19-1.07,0.25-1.65,0.18c-0.35-0.04-0.64,0.08-0.86,0.35
	c-0.15,0.19-0.34,0.33-0.55,0.41c-0.19,0.07-0.35,0.18-0.48,0.34c-0.47,0.56-0.97,1-1.5,1.31c-0.27,0.16-0.48,0.37-0.65,0.64
	c-1.36,2.23-2.14,3.76-2.35,4.57c-0.89,3.41-1.76,5.53-2.63,6.37c-3.77,3.7-5.44,7.48-10.35,10.77
	c-11.18-8.88-24.63,8.79-11.15,17.97c-0.05,0.22,0.11,0.49,0.48,0.81c0.31,0.27,0.26,0.42-0.15,0.47c-1.15,0.13-2.12,0.03-3.21,0.38
	c-6.91,2.21-13.98,3.17-21.19,2.87c-4.94-0.2-9.87-2.13-14.89-3.41c-7.71-6.59-12.69-14.5-14.93-23.73
	c-3.9-16.05,0.37-35.15,13.47-46.22c0.89-0.75,1.25-0.55,1.1,0.6c-0.76,5.76,2.5,11.57,8.25,12.99c3.23,0.81,6.2-0.02,8.89-2.47
	c3.49-3.17,4.34-7.6,2.57-13.31c1.33-0.47,3.17-0.89,5.5-1.26c10.27-1.6,22.23-1.86,32.26,1.22
	C436.69,401.69,436.96,401.7,437.29,401.65z M438.07,421.15c0-5.71-4.63-10.34-10.34-10.34c-5.71,0-10.34,4.63-10.34,10.34
	s4.63,10.34,10.34,10.34C433.44,431.49,438.07,426.86,438.07,421.15z M397.68,446.44c0-5.81-4.71-10.52-10.52-10.52
	s-10.52,4.71-10.52,10.52s4.71,10.52,10.52,10.52S397.68,452.25,397.68,446.44z"/>
<path class="st1" d="M324.15,423.87c-8.46,1.22-12.96-5.53-11.95-13.34c1.26-2.52,2.67-4.19,4.24-5.02
	C330.37,398.2,338.83,418.65,324.15,423.87z"/>
<path class="st8" d="M278.83,409.73c4.41,9.25,2.04,22.25-4.43,29.93c-8.04,9.55-23.27,13-34.25,6.01
	c-4.91-3.12-10.06-8.4-11.45-14.29c0.1-0.01,0.19-0.03,0.27-0.05c0.14-0.04,0.29-0.02,0.42,0.06c14.2,8.58,32.95,10.17,43.33-5.31
	C276.21,420.89,278.24,415.44,278.83,409.73z"/>
<path class="st10" d="M312.2,410.53c-1.01,7.81,3.49,14.56,11.95,13.34c-0.43,0.39-0.52,0.86-0.25,1.42
	c0.12,0.27,0.38,0.46,0.67,0.5c0.95,0.17,1.25,0.76,0.9,1.79c-0.48,1.41-1.53,2.68-3.16,3.81c-9.92,6.89-20.01,13.52-30.28,19.88
	c-0.28,0.17-0.58,0.24-0.9,0.19l-3.62-0.51c7.59-8.67,11.22-18.95,10.89-30.84c0.99,0.26,1.7-0.37,2.12-1.9
	c0.3-1.07,0.65-1.85,1.06-2.36C304.41,412.37,307.95,410.6,312.2,410.53z"/>
<path class="st1" d="M438.07,421.15c0,5.71-4.63,10.34-10.34,10.34c-5.71,0-10.34-4.63-10.34-10.34s4.63-10.34,10.34-10.34
	C433.44,410.81,438.07,415.44,438.07,421.15z"/>
<path class="st1" d="M191.99,415.63c1.32,2.05,1.82,4.29,1.49,6.71c-0.65,4.72-0.98,9.47-1,14.24
	c-0.13,39.32,30.36,64.09,68.02,66.17l8.32,0.07c0.36,0.01,0.67-0.26,0.72-0.61c0.49-3.22,0.93-6.52,1.3-9.89
	c0.18-1.66,0.91-4.6,2.18-8.81c6.3-17.48,22.36-28.36,40.44-28.91c9.47-0.29,19.08,1.41,28.81,5.09c1.07,0.52,1.59,1.19,1.58,2.01
	c-0.06,3.39-0.07,6.19-0.03,8.39c-1.26,7.8-2.88,14.88-4.87,21.23c-0.13,0.39-0.14,1.02-0.04,1.88c0.04,0.32,0.17,0.6,0.38,0.83
	c5.85,6.51,10.99,11.44,15.41,14.78c6.84,5.17,11.95,9.51,15.32,13.02c-2.06,1.06-3.58,1.8-4.56,2.23
	c-26.34,11.39-62.2,18.6-85.6-3.65c-0.19-0.18-0.47-0.26-0.74-0.21c-7.57,1.41-15.23,1.76-22.97,1.04c-26.94-2.67-49.71-14-65.92-35
	c-12.42-16.09-17.99-35.76-16.17-56.17c0.61-6.8,2.81-20.14,12.89-17.7C189.06,412.88,190.74,413.97,191.99,415.63z M289.42,495.35
	c0.16,0.19,0.24,0.45,0.23,0.76c-1.09,5.33,4.35,12.11,8.19,14.82c10.25,7.23,22.7,7.01,34.27,4.24c0.73-0.17,0.83-0.53,0.32-1.07
	l-6.52-6.9l-11.94-12.24c-0.81-0.83-0.9-1.73-0.28-2.71c0.52-0.82,1.38-1.78,2.58-2.87c1.2-1.09,6.88-8.55,8.1-13.28
	c0.29-0.39,0.48-0.77,0.57-1.15c0.09-0.34-0.03-0.57-0.36-0.7c-14.46-5.57-31.42,0.65-35.33,16.54
	C288.87,492.34,288.93,493.86,289.42,495.35z"/>
<path class="st6" d="M81.84,428.35c0.82,1.44,1.88,2.58,2.58,3.83c20.61,36.82,48.62,66.67,84.03,89.55
	c-0.51,0.13-0.88,0.3-1.12,0.53c-0.4,0.38-0.64,0.44-0.73,0.19l-0.12-0.32c-0.05-0.14-0.14-0.19-0.29-0.14
	c-2.06,0.69-3.67,2.16-5.29,2.97c-2.4,1.18-4.68,2.29-7.23,3.1c-1.02,0.33-1.78,0.96-2.28,1.9c-0.19,0.37-0.67,0.47-1,0.21
	c-11.95-9.57-23.29-19.68-34.03-30.35c-14.86-14.76-27.48-31.33-38.25-49.29c-2.23-3.72-4.28-7.36-6.14-10.91
	C69.87,430.67,73.16,426.91,81.84,428.35z"/>
<path class="st6" d="M453.81,431.19c3.68,22.41-10.31,45.52-32.36,51.86c-14.51,4.17-30.85,1.51-42.08-9.24
	c5.02,1.28,9.95,3.21,14.89,3.41c7.21,0.3,14.28-0.66,21.19-2.87c1.09-0.35,2.06-0.25,3.21-0.38c0.41-0.05,0.46-0.2,0.15-0.47
	c-0.37-0.32-0.53-0.59-0.48-0.81c11.53,3.55,20.64-8.73,11.15-17.97c4.91-3.29,6.58-7.07,10.35-10.77c0.87-0.84,1.74-2.96,2.63-6.37
	c0.21-0.81,0.99-2.34,2.35-4.57c0.17-0.27,0.38-0.48,0.65-0.64c0.53-0.31,1.03-0.75,1.5-1.31c0.13-0.16,0.29-0.27,0.48-0.34
	c0.21-0.08,0.4-0.22,0.55-0.41c0.22-0.27,0.51-0.39,0.86-0.35c0.58,0.07,1.13,0.01,1.65-0.18c0.32-0.12,0.6-0.06,0.83,0.19
	c0.21,0.23,0.46,0.3,0.75,0.22c0.25-0.07,0.48-0.03,0.68,0.14L453.81,431.19z"/>
<path class="st1" d="M157.93,454.17c0.81,6.68-3.35,12.36-10.17,11.22c-3.33-0.56-5.35-2.78-7.58-5.29
	c-3.41-3.84-6.79-7.7-10.16-11.58c-1.34-1.55-2.48-3.69-3.43-6.42c-0.65-3.76-0.03-6.51,1.85-8.26c6.86-6.37,11.52-1.66,16.38,4.2
	c3.19,3.84,6.48,7.58,9.87,11.23c0.67,0.72,1.25,1.5,1.74,2.35C157,452.6,157.5,453.45,157.93,454.17z"/>
<path class="st1" d="M397.68,446.44c0,5.81-4.71,10.52-10.52,10.52s-10.52-4.71-10.52-10.52s4.71-10.52,10.52-10.52
	S397.68,440.63,397.68,446.44z"/>
<path class="st2" d="M109.19,440.37l17.4,1.73c0.95,2.73,2.09,4.87,3.43,6.42c3.37,3.88,6.75,7.74,10.16,11.58
	c2.23,2.51,4.25,4.73,7.58,5.29c6.82,1.14,10.98-4.54,10.17-11.22l12.47,7.37c0.45,0.27,0.73,0.66,0.82,1.18
	c0.67,3.67,1.45,7.45,2.35,11.34c3.61,15.53,13.9,29.42,25.19,40.3c0.19,0.18,0.24,0.47,0.12,0.71c-0.26,0.53-0.66,0.7-1.2,0.51
	c-17.25-9.96-33.89-19.9-49.01-32.99c-8.88-7.7-18.64-16.64-26.44-25.52C118.79,453.16,114.44,447.59,109.19,440.37z"/>
<path class="st2" d="M499.81,459.09c-1.01,5.03-4.12,8.04-9.33,9.03c-12.46,1.41-15.33-19.85-1.81-20.29
	C496.32,447.58,500.03,451.34,499.81,459.09z"/>
<path class="st1" d="M429.48,454.72c9.49,9.24,0.38,21.52-11.15,17.97C404.85,463.51,418.3,445.84,429.48,454.72z"/>
<path class="st2" d="M343.82,470.09c2.16,5.42,4.96,10.58,8.39,15.49c8.43,12.04,19.65,20.12,33.66,24.25
	c1.69,0.5,1.79,1.21,0.28,2.13l-16.13,9.87c-3.37-3.51-8.48-7.85-15.32-13.02c-4.42-3.34-9.56-8.27-15.41-14.78
	c-0.21-0.23-0.34-0.51-0.38-0.83c-0.1-0.86-0.09-1.49,0.04-1.88C340.94,484.97,342.56,477.89,343.82,470.09z"/>
<path class="st4" d="M324.37,476.1c-2.55,0.85-6.94,1.72-13.17,2.59c-9.89,1.38-16.83,6.92-20.8,16.61
	c-0.09,0.22-0.41,0.24-0.98,0.05c-0.49-1.49-0.55-3.01-0.17-4.56c3.91-15.89,20.87-22.11,35.33-16.54c0.33,0.13,0.45,0.36,0.36,0.7
	C324.85,475.33,324.66,475.71,324.37,476.1z"/>
<path class="st5" d="M324.37,476.1c-1.22,4.73-6.9,12.19-8.1,13.28c-1.2,1.09-2.06,2.05-2.58,2.87c-0.62,0.98-0.53,1.88,0.28,2.71
	l11.94,12.24c-1.37,0.29-2.42-0.05-3.89,0.3c-11.93,2.85-25-1.48-32.37-11.39c0.01-0.31-0.07-0.57-0.23-0.76
	c0.57,0.19,0.89,0.17,0.98-0.05c3.97-9.69,10.91-15.23,20.8-16.61C317.43,477.82,321.82,476.95,324.37,476.1z"/>
<path class="st10" d="M273.02,483.51c-1.27,4.21-2,7.15-2.18,8.81c-0.37,3.37-0.81,6.67-1.3,9.89c-0.05,0.35-0.36,0.62-0.72,0.61
	l-8.32-0.07c0.81-5.51,2.6-10.72,5.37-15.63C266.96,485.18,269.35,483.98,273.02,483.51z"/>
<path class="st8" d="M289.65,496.11c7.37,9.91,20.44,14.24,32.37,11.39c1.47-0.35,2.52-0.01,3.89-0.3l6.52,6.9
	c0.51,0.54,0.41,0.9-0.32,1.07c-11.57,2.77-24.02,2.99-34.27-4.24C294,508.22,288.56,501.44,289.65,496.11z"/>
<path class="st1" d="M34.41,603.52c0.04,4.53-3.6,8.23-8.13,8.27l-18,0.16c-4.53,0.04-8.24-3.6-8.27-8.13L0,602.88
	c-0.04-4.53,3.6-8.23,8.13-8.27l18-0.16c4.53-0.04,8.24,3.6,8.27,8.13L34.41,603.52z"/>
<path class="st1" d="M624.68,603.47c0.05,4.55-3.6,8.28-8.15,8.33l-18.5,0.19c-4.55,0.04-8.28-3.61-8.33-8.15l-0.01-0.9
	c-0.05-4.55,3.6-8.28,8.15-8.33l18.5-0.19c4.55-0.04,8.28,3.61,8.33,8.15L624.68,603.47z"/>
<path class="st13" d="M569.49,611.52c1.07,7.07-3.62,12.24-10.28,13.55c-1.14,0.23-3.47,0.34-7,0.34
	c-141.58,0.09-283.16,0.14-424.75,0.13c-17.99,0-35.97-0.05-53.96-0.16c-3.47-0.02-6.08-0.49-7.83-1.41
	c-3.76-1.96-5.93-5.33-6.5-10.1c-0.03-0.3,0.03-0.58,0.18-0.84c0.21-0.36,0.31-0.75,0.3-1.17L569.49,611.52z"/>
</svg>
